<svg width="8" height="12" viewBox="0 0 8 12" fill="none" xmlns="http://www.w3.org/2000/svg">
<path d="M1.55957 7.9834C1.66474 7.88477 1.75695 7.80005 1.8252 7.73828C1.85727 7.70926 1.89422 7.67575 1.92871 7.64648C1.94205 7.63517 1.97799 7.60566 2.02148 7.57324C2.03526 7.56297 2.09847 7.51548 2.18457 7.4668C2.21441 7.44992 2.34011 7.37791 2.5166 7.32812C2.5998 7.30467 2.80535 7.25336 3.07031 7.2793C3.18598 7.29062 3.32716 7.31966 3.47559 7.37793C3.56824 7.00002 3.7876 6.75076 3.91309 6.63477C4.07763 6.48268 4.23738 6.40461 4.30371 6.37402C4.44615 6.30837 4.56676 6.28053 4.59766 6.27344C4.68294 6.25389 4.75211 6.24601 4.76855 6.24414C4.81771 6.23856 4.86008 6.23623 4.87598 6.23535C4.89311 6.2344 4.91098 6.23408 4.92871 6.2334C4.4279 5.74808 3.86239 5.19796 3.26367 4.62109L3.2627 4.62012C2.54044 3.92313 1.9625 3.36721 1.5 2.92188V8.04004C1.52057 8.02068 1.54021 8.00155 1.55957 7.9834Z" fill="#31A301" stroke="white" stroke-width="3"/>
</svg>
